<svg width="429" height="470" viewBox="0 0 429 470" fill="none" xmlns="http://www.w3.org/2000/svg">
<path d="M87.4598 235.958C79.1909 233.711 72.0543 232.939 66.0328 229.954C17.5004 205.937 -8.78154 149.804 3.03847 96.3827C15.0815 42.0346 64.18 1.34225 120.638 0.415859C170.131 -0.39044 219.641 0.227151 269.152 0.209996C314.15 0.209996 359.166 0.192841 404.164 0.209996C420.656 0.209996 428.913 8.23296 428.936 24.2789C428.936 70.787 428.936 117.295 428.936 163.803C428.936 178.854 421.582 186.368 406.875 186.345C312.366 186.328 217.857 186.311 123.349 186.294C122.851 186.294 122.354 186.294 121.856 186.294C88.592 186.414 77.2352 201.305 87.4598 235.941V235.958Z" fill="white"/>
<path d="M341.513 233.265C349.542 235.375 355.443 235.975 360.487 238.377C410.203 262.103 437.291 317.463 426.243 372.068C415.607 424.632 366.354 468.258 312.555 468.893C212.573 470.077 112.575 469.15 12.5768 469.528C0.465198 469.579 0.259334 463.009 0.293645 454.208C0.465198 402.708 0.842615 351.208 0.0706258 299.725C-0.135238 285.88 5.20006 282.895 17.6034 282.947C106.605 283.307 195.59 283.17 284.592 283.187C292.088 283.187 299.585 283.187 307.082 283.187C340.621 283.135 351.583 268.828 341.496 233.265H341.513Z" fill="white"/>
</svg>
