<?xml version="1.0" encoding="UTF-8"?>
<svg id="Layer_2" data-name="Layer 2" xmlns="http://www.w3.org/2000/svg" viewBox="0 0 250 250">
  <defs>
    <style>
      .cls-1 {
        fill: #213baa;
      }

      .cls-1, .cls-2 {
        stroke-width: 0px;
      }

      .cls-2 {
        fill: #fff;
      }
    </style>
  </defs>
  <g id="Layer_1-2" data-name="Layer 1">
    <g>
      <rect class="cls-2" width="250" height="250" rx="36.59" ry="36.59"/>
      <g>
        <path class="cls-1" d="M79.29,125.97c-2.98-.81-5.55-1.09-7.72-2.16-17.47-8.65-26.94-28.86-22.68-48.1,4.34-19.57,22.01-34.23,42.35-34.56,17.82-.29,35.65-.07,53.48-.07,16.21,0,32.41,0,48.62,0q8.91,0,8.92,8.67c0,16.75,0,33.49,0,50.24q0,8.13-7.94,8.12c-34.03,0-68.07-.01-102.1-.02-.18,0-.36,0-.54,0-11.98.04-16.07,5.41-12.38,17.88Z"/>
        <path class="cls-1" d="M170.78,125c2.89.76,5.02.97,6.83,1.84,17.9,8.54,27.66,28.48,23.68,48.14-3.83,18.93-21.57,34.64-40.94,34.87-36,.43-72.01.1-108.02.23-4.36.02-4.43-2.35-4.42-5.52.06-18.54.2-37.09-.08-55.63-.07-4.99,1.85-6.06,6.31-6.04,32.05.13,64.09.08,96.14.09,2.7,0,5.4,0,8.1,0,12.08-.02,16.03-5.17,12.39-17.98Z"/>
      </g>
    </g>
  </g>
</svg>