<svg width="403" height="180" viewBox="0 0 403 180" fill="none" xmlns="http://www.w3.org/2000/svg">
<rect width="403" height="180" rx="8" fill="white"/>
<path d="M18.256 52V35.2H25.6C27.424 35.2 29.024 35.552 30.4 36.256C31.776 36.96 32.848 37.936 33.616 39.184C34.384 40.432 34.768 41.904 34.768 43.6C34.768 45.28 34.384 46.752 33.616 48.016C32.848 49.264 31.776 50.24 30.4 50.944C29.024 51.648 27.424 52 25.6 52H18.256ZM21.376 49.36H25.456C26.72 49.36 27.808 49.12 28.72 48.64C29.648 48.16 30.36 47.488 30.856 46.624C31.368 45.76 31.624 44.752 31.624 43.6C31.624 42.432 31.368 41.424 30.856 40.576C30.36 39.712 29.648 39.04 28.72 38.56C27.808 38.08 26.72 37.84 25.456 37.84H21.376V49.36ZM37.6521 52V39.184H40.6521V52H37.6521ZM39.1641 37.072C38.6041 37.072 38.1401 36.896 37.7721 36.544C37.4201 36.192 37.2441 35.768 37.2441 35.272C37.2441 34.76 37.4201 34.336 37.7721 34C38.1401 33.648 38.6041 33.472 39.1641 33.472C39.7241 33.472 40.1801 33.64 40.5321 33.976C40.9001 34.296 41.0841 34.704 41.0841 35.2C41.0841 35.728 40.9081 36.176 40.5561 36.544C40.2041 36.896 39.7401 37.072 39.1641 37.072ZM50.2536 56.824C49.0696 56.824 47.9096 56.664 46.7736 56.344C45.6536 56.04 44.7336 55.592 44.0136 55L45.3576 52.744C45.9176 53.208 46.6216 53.576 47.4696 53.848C48.3336 54.136 49.2056 54.28 50.0856 54.28C51.4936 54.28 52.5256 53.952 53.1816 53.296C53.8376 52.656 54.1656 51.688 54.1656 50.392V48.112L54.4056 45.208L54.3096 42.304V39.184H57.1656V50.056C57.1656 52.376 56.5736 54.08 55.3896 55.168C54.2056 56.272 52.4936 56.824 50.2536 56.824ZM49.8696 51.424C48.6536 51.424 47.5496 51.168 46.5576 50.656C45.5816 50.128 44.8056 49.4 44.2296 48.472C43.6696 47.544 43.3896 46.456 43.3896 45.208C43.3896 43.976 43.6696 42.896 44.2296 41.968C44.8056 41.04 45.5816 40.32 46.5576 39.808C47.5496 39.296 48.6536 39.04 49.8696 39.04C50.9576 39.04 51.9336 39.256 52.7976 39.688C53.6616 40.12 54.3496 40.792 54.8616 41.704C55.3896 42.616 55.6536 43.784 55.6536 45.208C55.6536 46.632 55.3896 47.808 54.8616 48.736C54.3496 49.648 53.6616 50.328 52.7976 50.776C51.9336 51.208 50.9576 51.424 49.8696 51.424ZM50.3256 48.88C51.0776 48.88 51.7496 48.728 52.3416 48.424C52.9336 48.104 53.3896 47.672 53.7096 47.128C54.0456 46.568 54.2136 45.928 54.2136 45.208C54.2136 44.488 54.0456 43.856 53.7096 43.312C53.3896 42.752 52.9336 42.328 52.3416 42.04C51.7496 41.736 51.0776 41.584 50.3256 41.584C49.5736 41.584 48.8936 41.736 48.2856 42.04C47.6936 42.328 47.2296 42.752 46.8936 43.312C46.5736 43.856 46.4136 44.488 46.4136 45.208C46.4136 45.928 46.5736 46.568 46.8936 47.128C47.2296 47.672 47.6936 48.104 48.2856 48.424C48.8936 48.728 49.5736 48.88 50.3256 48.88ZM60.9657 52V39.184H63.9657V52H60.9657ZM62.4777 37.072C61.9177 37.072 61.4537 36.896 61.0857 36.544C60.7337 36.192 60.5577 35.768 60.5577 35.272C60.5577 34.76 60.7337 34.336 61.0857 34C61.4537 33.648 61.9177 33.472 62.4777 33.472C63.0377 33.472 63.4937 33.64 63.8457 33.976C64.2137 34.296 64.3977 34.704 64.3977 35.2C64.3977 35.728 64.2217 36.176 63.8697 36.544C63.5177 36.896 63.0537 37.072 62.4777 37.072ZM72.5832 52.168C71.1752 52.168 70.0872 51.808 69.3192 51.088C68.5512 50.352 68.1672 49.272 68.1672 47.848V36.352H71.1672V47.776C71.1672 48.384 71.3192 48.856 71.6232 49.192C71.9432 49.528 72.3832 49.696 72.9432 49.696C73.6152 49.696 74.1752 49.52 74.6232 49.168L75.4632 51.304C75.1112 51.592 74.6792 51.808 74.1672 51.952C73.6552 52.096 73.1272 52.168 72.5832 52.168ZM66.0552 41.68V39.28H74.5992V41.68H66.0552ZM85.6831 52V49.408L85.5151 48.856V44.32C85.5151 43.44 85.2511 42.76 84.7231 42.28C84.1951 41.784 83.3951 41.536 82.3231 41.536C81.6031 41.536 80.8911 41.648 80.1871 41.872C79.4991 42.096 78.9151 42.408 78.4351 42.808L77.2591 40.624C77.9471 40.096 78.7631 39.704 79.7071 39.448C80.6671 39.176 81.6591 39.04 82.6831 39.04C84.5391 39.04 85.9711 39.488 86.9791 40.384C88.0031 41.264 88.5151 42.632 88.5151 44.488V52H85.6831ZM81.6511 52.168C80.6911 52.168 79.8511 52.008 79.1311 51.688C78.4111 51.352 77.8511 50.896 77.4511 50.32C77.0671 49.728 76.8751 49.064 76.8751 48.328C76.8751 47.608 77.0431 46.96 77.3791 46.384C77.7311 45.808 78.2991 45.352 79.0831 45.016C79.8671 44.68 80.9071 44.512 82.2031 44.512H85.9231V46.504H82.4191C81.3951 46.504 80.7071 46.672 80.3551 47.008C80.0031 47.328 79.8271 47.728 79.8271 48.208C79.8271 48.752 80.0431 49.184 80.4751 49.504C80.9071 49.824 81.5071 49.984 82.2751 49.984C83.0111 49.984 83.6671 49.816 84.2431 49.48C84.8351 49.144 85.2591 48.648 85.5151 47.992L86.0191 49.792C85.7311 50.544 85.2111 51.128 84.4591 51.544C83.7231 51.96 82.7871 52.168 81.6511 52.168ZM92.2212 52V34.192H95.2212V52H92.2212ZM105.791 52V35.2H108.911V49.36H117.696V52H105.791ZM119.727 52V39.184H122.727V52H119.727ZM121.239 37.072C120.679 37.072 120.215 36.896 119.847 36.544C119.495 36.192 119.319 35.768 119.319 35.272C119.319 34.76 119.495 34.336 119.847 34C120.215 33.648 120.679 33.472 121.239 33.472C121.799 33.472 122.255 33.64 122.607 33.976C122.975 34.296 123.159 34.704 123.159 35.2C123.159 35.728 122.983 36.176 122.631 36.544C122.279 36.896 121.815 37.072 121.239 37.072ZM126.928 52V38.464C126.928 37.12 127.32 36.048 128.104 35.248C128.904 34.432 130.04 34.024 131.512 34.024C132.04 34.024 132.536 34.08 133 34.192C133.48 34.304 133.88 34.48 134.2 34.72L133.384 36.976C133.16 36.8 132.904 36.672 132.616 36.592C132.328 36.496 132.032 36.448 131.728 36.448C131.104 36.448 130.632 36.624 130.312 36.976C129.992 37.312 129.832 37.824 129.832 38.512V39.952L129.928 41.296V52H126.928ZM124.816 41.68V39.28H133.36V41.68H124.816ZM141.072 52.168C139.648 52.168 138.4 51.888 137.328 51.328C136.272 50.752 135.448 49.968 134.856 48.976C134.28 47.984 133.992 46.856 133.992 45.592C133.992 44.312 134.272 43.184 134.832 42.208C135.408 41.216 136.192 40.44 137.184 39.88C138.192 39.32 139.336 39.04 140.616 39.04C141.864 39.04 142.976 39.312 143.952 39.856C144.928 40.4 145.696 41.168 146.256 42.16C146.816 43.152 147.096 44.32 147.096 45.664C147.096 45.792 147.088 45.936 147.072 46.096C147.072 46.256 147.064 46.408 147.048 46.552H136.368V44.56H145.464L144.288 45.184C144.304 44.448 144.152 43.8 143.832 43.24C143.512 42.68 143.072 42.24 142.512 41.92C141.968 41.6 141.336 41.44 140.616 41.44C139.88 41.44 139.232 41.6 138.672 41.92C138.128 42.24 137.696 42.688 137.376 43.264C137.072 43.824 136.92 44.488 136.92 45.256V45.736C136.92 46.504 137.096 47.184 137.448 47.776C137.8 48.368 138.296 48.824 138.936 49.144C139.576 49.464 140.312 49.624 141.144 49.624C141.864 49.624 142.512 49.512 143.088 49.288C143.664 49.064 144.176 48.712 144.624 48.232L146.232 50.08C145.656 50.752 144.928 51.272 144.048 51.64C143.184 51.992 142.192 52.168 141.072 52.168ZM159.491 42.184H167.843V44.752H159.491V42.184ZM159.731 49.384H169.211V52H156.611V35.2H168.875V37.816H159.731V49.384ZM170.294 52L175.934 44.656L175.886 46.264L170.51 39.184H173.846L177.614 44.224H176.342L180.134 39.184H183.374L177.95 46.264L177.974 44.656L183.59 52H180.206L176.246 46.648L177.494 46.816L173.606 52H170.294ZM192.764 52.168C191.724 52.168 190.772 51.928 189.908 51.448C189.06 50.968 188.38 50.248 187.868 49.288C187.372 48.312 187.124 47.08 187.124 45.592C187.124 44.088 187.364 42.856 187.844 41.896C188.34 40.936 189.012 40.224 189.86 39.76C190.708 39.28 191.676 39.04 192.764 39.04C194.028 39.04 195.14 39.312 196.1 39.856C197.076 40.4 197.844 41.16 198.404 42.136C198.98 43.112 199.268 44.264 199.268 45.592C199.268 46.92 198.98 48.08 198.404 49.072C197.844 50.048 197.076 50.808 196.1 51.352C195.14 51.896 194.028 52.168 192.764 52.168ZM185.66 56.656V39.184H188.516V42.208L188.42 45.616L188.66 49.024V56.656H185.66ZM192.428 49.6C193.148 49.6 193.788 49.44 194.348 49.12C194.924 48.8 195.38 48.336 195.716 47.728C196.052 47.12 196.22 46.408 196.22 45.592C196.22 44.76 196.052 44.048 195.716 43.456C195.38 42.848 194.924 42.384 194.348 42.064C193.788 41.744 193.148 41.584 192.428 41.584C191.708 41.584 191.06 41.744 190.484 42.064C189.908 42.384 189.452 42.848 189.116 43.456C188.78 44.048 188.612 44.76 188.612 45.592C188.612 46.408 188.78 47.12 189.116 47.728C189.452 48.336 189.908 48.8 190.484 49.12C191.06 49.44 191.708 49.6 192.428 49.6ZM207.993 52.168C206.569 52.168 205.321 51.888 204.249 51.328C203.193 50.752 202.369 49.968 201.777 48.976C201.201 47.984 200.913 46.856 200.913 45.592C200.913 44.312 201.193 43.184 201.753 42.208C202.329 41.216 203.113 40.44 204.105 39.88C205.113 39.32 206.257 39.04 207.537 39.04C208.785 39.04 209.897 39.312 210.873 39.856C211.849 40.4 212.617 41.168 213.177 42.16C213.737 43.152 214.017 44.32 214.017 45.664C214.017 45.792 214.009 45.936 213.993 46.096C213.993 46.256 213.985 46.408 213.969 46.552H203.289V44.56H212.385L211.209 45.184C211.225 44.448 211.073 43.8 210.753 43.24C210.433 42.68 209.993 42.24 209.433 41.92C208.889 41.6 208.257 41.44 207.537 41.44C206.801 41.44 206.153 41.6 205.593 41.92C205.049 42.24 204.617 42.688 204.297 43.264C203.993 43.824 203.841 44.488 203.841 45.256V45.736C203.841 46.504 204.017 47.184 204.369 47.776C204.721 48.368 205.217 48.824 205.857 49.144C206.497 49.464 207.233 49.624 208.065 49.624C208.785 49.624 209.433 49.512 210.009 49.288C210.585 49.064 211.097 48.712 211.545 48.232L213.153 50.08C212.577 50.752 211.849 51.272 210.969 51.64C210.105 51.992 209.113 52.168 207.993 52.168ZM216.754 52V39.184H219.61V42.712L219.274 41.68C219.658 40.816 220.258 40.16 221.074 39.712C221.906 39.264 222.938 39.04 224.17 39.04V41.896C224.042 41.864 223.922 41.848 223.81 41.848C223.698 41.832 223.586 41.824 223.474 41.824C222.338 41.824 221.434 42.16 220.762 42.832C220.09 43.488 219.754 44.472 219.754 45.784V52H216.754ZM226.571 52V39.184H229.571V52H226.571ZM228.083 37.072C227.523 37.072 227.059 36.896 226.691 36.544C226.339 36.192 226.163 35.768 226.163 35.272C226.163 34.76 226.339 34.336 226.691 34C227.059 33.648 227.523 33.472 228.083 33.472C228.643 33.472 229.099 33.64 229.451 33.976C229.819 34.296 230.003 34.704 230.003 35.2C230.003 35.728 229.827 36.176 229.475 36.544C229.123 36.896 228.659 37.072 228.083 37.072ZM239.389 52.168C237.965 52.168 236.717 51.888 235.645 51.328C234.589 50.752 233.765 49.968 233.173 48.976C232.597 47.984 232.309 46.856 232.309 45.592C232.309 44.312 232.589 43.184 233.149 42.208C233.725 41.216 234.509 40.44 235.501 39.88C236.509 39.32 237.653 39.04 238.933 39.04C240.181 39.04 241.293 39.312 242.269 39.856C243.245 40.4 244.013 41.168 244.573 42.16C245.133 43.152 245.413 44.32 245.413 45.664C245.413 45.792 245.405 45.936 245.389 46.096C245.389 46.256 245.381 46.408 245.365 46.552H234.685V44.56H243.781L242.605 45.184C242.621 44.448 242.469 43.8 242.149 43.24C241.829 42.68 241.389 42.24 240.829 41.92C240.285 41.6 239.653 41.44 238.933 41.44C238.197 41.44 237.549 41.6 236.989 41.92C236.445 42.24 236.013 42.688 235.693 43.264C235.389 43.824 235.237 44.488 235.237 45.256V45.736C235.237 46.504 235.413 47.184 235.765 47.776C236.117 48.368 236.613 48.824 237.253 49.144C237.893 49.464 238.629 49.624 239.461 49.624C240.181 49.624 240.829 49.512 241.405 49.288C241.981 49.064 242.493 48.712 242.941 48.232L244.549 50.08C243.973 50.752 243.245 51.272 242.365 51.64C241.501 51.992 240.509 52.168 239.389 52.168ZM255.422 39.04C256.446 39.04 257.358 39.24 258.158 39.64C258.974 40.04 259.614 40.656 260.078 41.488C260.542 42.304 260.774 43.36 260.774 44.656V52H257.774V45.04C257.774 43.904 257.502 43.056 256.958 42.496C256.43 41.936 255.686 41.656 254.726 41.656C254.022 41.656 253.398 41.8 252.854 42.088C252.31 42.376 251.886 42.808 251.582 43.384C251.294 43.944 251.15 44.656 251.15 45.52V52H248.15V39.184H251.006V42.64L250.502 41.584C250.95 40.768 251.598 40.144 252.446 39.712C253.31 39.264 254.302 39.04 255.422 39.04ZM270.34 52.168C268.996 52.168 267.796 51.888 266.74 51.328C265.7 50.752 264.884 49.968 264.292 48.976C263.7 47.984 263.404 46.856 263.404 45.592C263.404 44.312 263.7 43.184 264.292 42.208C264.884 41.216 265.7 40.44 266.74 39.88C267.796 39.32 268.996 39.04 270.34 39.04C271.588 39.04 272.684 39.296 273.628 39.808C274.588 40.304 275.316 41.04 275.812 42.016L273.508 43.36C273.124 42.752 272.652 42.304 272.092 42.016C271.548 41.728 270.956 41.584 270.316 41.584C269.58 41.584 268.916 41.744 268.324 42.064C267.732 42.384 267.268 42.848 266.932 43.456C266.596 44.048 266.428 44.76 266.428 45.592C266.428 46.424 266.596 47.144 266.932 47.752C267.268 48.344 267.732 48.8 268.324 49.12C268.916 49.44 269.58 49.6 270.316 49.6C270.956 49.6 271.548 49.456 272.092 49.168C272.652 48.88 273.124 48.432 273.508 47.824L275.812 49.168C275.316 50.128 274.588 50.872 273.628 51.4C272.684 51.912 271.588 52.168 270.34 52.168ZM284.097 52.168C282.673 52.168 281.425 51.888 280.353 51.328C279.297 50.752 278.473 49.968 277.881 48.976C277.305 47.984 277.017 46.856 277.017 45.592C277.017 44.312 277.297 43.184 277.857 42.208C278.433 41.216 279.217 40.44 280.209 39.88C281.217 39.32 282.361 39.04 283.641 39.04C284.889 39.04 286.001 39.312 286.977 39.856C287.953 40.4 288.721 41.168 289.281 42.16C289.841 43.152 290.121 44.32 290.121 45.664C290.121 45.792 290.113 45.936 290.097 46.096C290.097 46.256 290.089 46.408 290.073 46.552H279.393V44.56H288.489L287.313 45.184C287.329 44.448 287.177 43.8 286.857 43.24C286.537 42.68 286.097 42.24 285.537 41.92C284.993 41.6 284.361 41.44 283.641 41.44C282.905 41.44 282.257 41.6 281.697 41.92C281.153 42.24 280.721 42.688 280.401 43.264C280.097 43.824 279.945 44.488 279.945 45.256V45.736C279.945 46.504 280.121 47.184 280.473 47.776C280.825 48.368 281.321 48.824 281.961 49.144C282.601 49.464 283.337 49.624 284.169 49.624C284.889 49.624 285.537 49.512 286.113 49.288C286.689 49.064 287.201 48.712 287.649 48.232L289.257 50.08C288.681 50.752 287.953 51.272 287.073 51.64C286.209 51.992 285.217 52.168 284.097 52.168ZM296.819 52.168C295.747 52.168 294.715 52.032 293.723 51.76C292.747 51.472 291.971 51.128 291.395 50.728L292.547 48.448C293.123 48.816 293.811 49.12 294.611 49.36C295.411 49.6 296.211 49.72 297.011 49.72C297.955 49.72 298.635 49.592 299.051 49.336C299.483 49.08 299.699 48.736 299.699 48.304C299.699 47.952 299.555 47.688 299.267 47.512C298.979 47.32 298.603 47.176 298.139 47.08C297.675 46.984 297.155 46.896 296.579 46.816C296.019 46.736 295.451 46.632 294.875 46.504C294.315 46.36 293.803 46.16 293.339 45.904C292.875 45.632 292.499 45.272 292.211 44.824C291.923 44.376 291.779 43.784 291.779 43.048C291.779 42.232 292.011 41.528 292.475 40.936C292.939 40.328 293.587 39.864 294.419 39.544C295.267 39.208 296.267 39.04 297.419 39.04C298.283 39.04 299.155 39.136 300.035 39.328C300.915 39.52 301.643 39.792 302.219 40.144L301.067 42.424C300.459 42.056 299.843 41.808 299.219 41.68C298.611 41.536 298.003 41.464 297.395 41.464C296.483 41.464 295.803 41.6 295.355 41.872C294.923 42.144 294.707 42.488 294.707 42.904C294.707 43.288 294.851 43.576 295.139 43.768C295.427 43.96 295.803 44.112 296.267 44.224C296.731 44.336 297.243 44.432 297.803 44.512C298.379 44.576 298.947 44.68 299.507 44.824C300.067 44.968 300.579 45.168 301.043 45.424C301.523 45.664 301.907 46.008 302.195 46.456C302.483 46.904 302.627 47.488 302.627 48.208C302.627 49.008 302.387 49.704 301.907 50.296C301.443 50.888 300.779 51.352 299.915 51.688C299.051 52.008 298.019 52.168 296.819 52.168Z" fill="#0F172A"/>
<path d="M21.472 72.296C23.696 72.296 25.248 73.608 25.248 75.656C25.248 77.752 23.6 79.096 21.424 79.096C18.448 79.096 16.832 77.032 16.832 73.496C16.832 69.688 18.912 67.704 21.952 67.704C22.96 67.704 23.904 67.88 24.608 68.312L24.144 69.24C23.568 68.856 22.8 68.712 21.968 68.712C19.552 68.712 18 70.264 18 73.304C18 73.56 18.016 73.88 18.048 74.216C18.608 72.984 19.92 72.296 21.472 72.296ZM21.376 78.12C22.992 78.12 24.112 77.176 24.112 75.688C24.112 74.216 23.024 73.272 21.296 73.272C19.584 73.272 18.416 74.328 18.416 75.72C18.416 76.952 19.44 78.12 21.376 78.12ZM30.39 72.6C32.79 72.728 33.99 73.992 33.99 75.784C33.99 77.656 32.63 79.096 29.926 79.096C28.31 79.096 26.758 78.536 25.894 77.656L26.454 76.744C27.174 77.496 28.47 78.04 29.926 78.04C31.782 78.04 32.806 77.176 32.806 75.784C32.806 74.44 31.862 73.56 29.782 73.56H28.982V72.712L32.086 68.824H26.358V67.8H33.558V68.616L30.39 72.6ZM37.0231 77.976H43.1831V79H35.3271V78.184L39.9831 73.624C41.2471 72.376 41.4871 71.624 41.4871 70.856C41.4871 69.56 40.5751 68.76 38.8631 68.76C37.5511 68.76 36.5431 69.16 35.8071 70.008L34.9911 69.304C35.8551 68.28 37.2471 67.704 38.9591 67.704C41.2311 67.704 42.6711 68.856 42.6711 70.728C42.6711 71.8 42.3351 72.76 40.8311 74.232L37.0231 77.976ZM58.7524 79H57.4564L54.8964 75.4C54.6084 75.432 54.3204 75.448 54.0004 75.448H50.9924V79H49.8084V67.8H54.0004C56.8484 67.8 58.5764 69.24 58.5764 71.64C58.5764 73.4 57.6484 74.632 56.0164 75.16L58.7524 79ZM53.9684 74.44C56.2084 74.44 57.3924 73.4 57.3924 71.64C57.3924 69.848 56.2084 68.824 53.9684 68.824H50.9924V74.44H53.9684ZM68.4749 74.792C68.4749 74.888 68.4589 75.016 68.4589 75.144H61.4189C61.5469 76.904 62.8909 78.072 64.7309 78.072C65.7549 78.072 66.6669 77.704 67.3069 76.968L67.9469 77.704C67.1949 78.6 66.0269 79.08 64.6989 79.08C62.0749 79.08 60.2829 77.288 60.2829 74.792C60.2829 72.296 62.0269 70.52 64.3949 70.52C66.7629 70.52 68.4749 72.264 68.4749 74.792ZM64.3949 71.496C62.7629 71.496 61.5629 72.648 61.4189 74.296H67.3869C67.2429 72.648 66.0429 71.496 64.3949 71.496ZM73.0431 79.08C71.6511 79.08 70.3071 78.632 69.6191 78.04L70.1311 77.144C70.8031 77.672 71.9391 78.088 73.1231 78.088C74.7231 78.088 75.3791 77.544 75.3791 76.712C75.3791 74.52 69.9231 76.248 69.9231 72.92C69.9231 71.544 71.1071 70.52 73.2511 70.52C74.3391 70.52 75.5231 70.824 76.2271 71.304L75.7311 72.216C74.9951 71.704 74.1151 71.496 73.2511 71.496C71.7311 71.496 71.0591 72.088 71.0591 72.888C71.0591 75.16 76.5151 73.448 76.5151 76.68C76.5151 78.136 75.2351 79.08 73.0431 79.08ZM82.9513 70.52C85.3513 70.52 87.1433 72.248 87.1433 74.792C87.1433 77.352 85.3513 79.08 82.9513 79.08C81.6073 79.08 80.4553 78.504 79.7513 77.416V82.104H78.6153V70.584H79.7033V72.248C80.3913 71.128 81.5593 70.52 82.9513 70.52ZM82.8713 78.072C84.6473 78.072 86.0073 76.76 86.0073 74.792C86.0073 72.84 84.6473 71.512 82.8713 71.512C81.0793 71.512 79.7353 72.84 79.7353 74.792C79.7353 76.76 81.0793 78.072 82.8713 78.072ZM92.899 79.08C90.435 79.08 88.611 77.288 88.611 74.792C88.611 72.296 90.435 70.52 92.899 70.52C95.363 70.52 97.171 72.296 97.171 74.792C97.171 77.288 95.363 79.08 92.899 79.08ZM92.899 78.072C94.691 78.072 96.019 76.76 96.019 74.792C96.019 72.824 94.691 71.512 92.899 71.512C91.107 71.512 89.763 72.824 89.763 74.792C89.763 76.76 91.107 78.072 92.899 78.072ZM103.778 70.52C105.826 70.52 107.234 71.704 107.234 74.12V79H106.098V74.232C106.098 72.456 105.17 71.544 103.57 71.544C101.762 71.544 100.626 72.664 100.626 74.584V79H99.4903V70.584H100.578V72.136C101.186 71.112 102.322 70.52 103.778 70.52ZM112.574 79.08C111.182 79.08 109.838 78.632 109.15 78.04L109.662 77.144C110.334 77.672 111.47 78.088 112.654 78.088C114.254 78.088 114.91 77.544 114.91 76.712C114.91 74.52 109.454 76.248 109.454 72.92C109.454 71.544 110.638 70.52 112.782 70.52C113.87 70.52 115.054 70.824 115.758 71.304L115.262 72.216C114.526 71.704 113.646 71.496 112.782 71.496C111.262 71.496 110.59 72.088 110.59 72.888C110.59 75.16 116.046 73.448 116.046 76.68C116.046 78.136 114.766 79.08 112.574 79.08ZM125.491 74.792C125.491 74.888 125.475 75.016 125.475 75.144H118.435C118.562 76.904 119.907 78.072 121.747 78.072C122.771 78.072 123.683 77.704 124.323 76.968L124.963 77.704C124.211 78.6 123.043 79.08 121.715 79.08C119.091 79.08 117.299 77.288 117.299 74.792C117.299 72.296 119.043 70.52 121.411 70.52C123.779 70.52 125.491 72.264 125.491 74.792ZM121.411 71.496C119.779 71.496 118.579 72.648 118.435 74.296H124.403C124.259 72.648 123.059 71.496 121.411 71.496ZM130.059 79.08C128.667 79.08 127.323 78.632 126.635 78.04L127.147 77.144C127.819 77.672 128.955 78.088 130.139 78.088C131.739 78.088 132.395 77.544 132.395 76.712C132.395 74.52 126.939 76.248 126.939 72.92C126.939 71.544 128.123 70.52 130.267 70.52C131.355 70.52 132.539 70.824 133.243 71.304L132.747 72.216C132.011 71.704 131.131 71.496 130.267 71.496C128.747 71.496 128.075 72.088 128.075 72.888C128.075 75.16 133.531 73.448 133.531 76.68C133.531 78.136 132.251 79.08 130.059 79.08Z" fill="#0F172A"/>
<path d="M22.688 107.096C19.328 107.096 16.832 104.68 16.832 101.4C16.832 98.12 19.328 95.704 22.704 95.704C24.336 95.704 25.808 96.248 26.8 97.336L26.048 98.088C25.136 97.16 24.016 96.76 22.736 96.76C20.032 96.76 18 98.744 18 101.4C18 104.056 20.032 106.04 22.736 106.04C24.016 106.04 25.136 105.64 26.048 104.696L26.8 105.448C25.808 106.536 24.336 107.096 22.688 107.096ZM30.172 100.232C30.7 99.112 31.772 98.52 33.324 98.52V99.624C33.228 99.624 33.132 99.608 33.052 99.608C31.292 99.608 30.22 100.728 30.22 102.712V107H29.084V98.584H30.172V100.232ZM42.6468 102.792C42.6468 102.888 42.6308 103.016 42.6308 103.144H35.5908C35.7188 104.904 37.0628 106.072 38.9028 106.072C39.9268 106.072 40.8388 105.704 41.4788 104.968L42.1188 105.704C41.3668 106.6 40.1988 107.08 38.8708 107.08C36.2468 107.08 34.4548 105.288 34.4548 102.792C34.4548 100.296 36.1988 98.52 38.5668 98.52C40.9348 98.52 42.6468 100.264 42.6468 102.792ZM38.5668 99.496C36.9348 99.496 35.7348 100.648 35.5908 102.296H41.5588C41.4148 100.648 40.2148 99.496 38.5668 99.496ZM47.6686 98.52C49.8446 98.52 51.0766 99.608 51.0766 101.784V107H49.9886V105.688C49.4766 106.552 48.4846 107.08 47.0926 107.08C45.1886 107.08 44.0206 106.088 44.0206 104.632C44.0206 103.336 44.8526 102.248 47.2686 102.248H49.9406V101.736C49.9406 100.296 49.1246 99.512 47.5566 99.512C46.4686 99.512 45.4446 99.896 44.7566 100.504L44.2446 99.656C45.0926 98.936 46.3406 98.52 47.6686 98.52ZM47.2686 106.184C48.5486 106.184 49.4926 105.576 49.9406 104.472V103.096H47.3006C45.6686 103.096 45.1406 103.736 45.1406 104.6C45.1406 105.576 45.9246 106.184 47.2686 106.184ZM58.1941 105.672L58.5941 106.488C58.1461 106.888 57.4741 107.08 56.8181 107.08C55.2341 107.08 54.3541 106.184 54.3541 104.632V99.544H52.8501V98.584H54.3541V96.744H55.4901V98.584H58.0501V99.544H55.4901V104.568C55.4901 105.56 56.0021 106.104 56.9461 106.104C57.4101 106.104 57.8741 105.96 58.1941 105.672ZM67.7093 102.792C67.7093 102.888 67.6933 103.016 67.6933 103.144H60.6533C60.7812 104.904 62.1253 106.072 63.9653 106.072C64.9893 106.072 65.9013 105.704 66.5413 104.968L67.1813 105.704C66.4293 106.6 65.2613 107.08 63.9333 107.08C61.3093 107.08 59.5173 105.288 59.5173 102.792C59.5173 100.296 61.2613 98.52 63.6293 98.52C65.9973 98.52 67.7093 100.264 67.7093 102.792ZM63.6293 99.496C61.9973 99.496 60.7973 100.648 60.6533 102.296H66.6213C66.4773 100.648 65.2773 99.496 63.6293 99.496ZM76.5655 95.128H77.7015V107H76.6135V105.336C75.9255 106.472 74.7575 107.08 73.3655 107.08C70.9655 107.08 69.1735 105.336 69.1735 102.792C69.1735 100.248 70.9655 98.52 73.3655 98.52C74.7095 98.52 75.8615 99.096 76.5655 100.184V95.128ZM73.4615 106.072C75.2375 106.072 76.5815 104.76 76.5815 102.792C76.5815 100.824 75.2375 99.512 73.4615 99.512C71.6695 99.512 70.3255 100.824 70.3255 102.792C70.3255 104.76 71.6695 106.072 73.4615 106.072ZM87.9968 98.52C90.1728 98.52 91.4048 99.608 91.4048 101.784V107H90.3168V105.688C89.8048 106.552 88.8128 107.08 87.4208 107.08C85.5168 107.08 84.3488 106.088 84.3488 104.632C84.3488 103.336 85.1808 102.248 87.5968 102.248H90.2688V101.736C90.2688 100.296 89.4528 99.512 87.8848 99.512C86.7968 99.512 85.7728 99.896 85.0848 100.504L84.5728 99.656C85.4208 98.936 86.6688 98.52 87.9968 98.52ZM87.5968 106.184C88.8768 106.184 89.8208 105.576 90.2688 104.472V103.096H87.6288C85.9968 103.096 85.4688 103.736 85.4688 104.6C85.4688 105.576 86.2528 106.184 87.5968 106.184ZM98.5223 105.672L98.9223 106.488C98.4743 106.888 97.8023 107.08 97.1463 107.08C95.5623 107.08 94.6823 106.184 94.6823 104.632V99.544H93.1783V98.584H94.6823V96.744H95.8183V98.584H98.3783V99.544H95.8183V104.568C95.8183 105.56 96.3303 106.104 97.2743 106.104C97.7383 106.104 98.2023 105.96 98.5223 105.672ZM101.102 100.264C100.638 100.264 100.254 99.88 100.254 99.384C100.254 98.888 100.638 98.52 101.102 98.52C101.566 98.52 101.966 98.888 101.966 99.384C101.966 99.88 101.566 100.264 101.102 100.264ZM101.102 107.08C100.638 107.08 100.254 106.696 100.254 106.2C100.254 105.704 100.638 105.336 101.102 105.336C101.566 105.336 101.966 105.704 101.966 106.2C101.966 106.696 101.566 107.08 101.102 107.08ZM112.28 107.096C109.688 107.096 107.816 104.968 107.816 101.4C107.816 97.832 109.688 95.704 112.28 95.704C114.872 95.704 116.76 97.832 116.76 101.4C116.76 104.968 114.872 107.096 112.28 107.096ZM112.28 106.04C114.232 106.04 115.576 104.392 115.576 101.4C115.576 98.408 114.232 96.76 112.28 96.76C110.328 96.76 108.984 98.408 108.984 101.4C108.984 104.392 110.328 106.04 112.28 106.04ZM122.062 100.6C124.462 100.728 125.662 101.992 125.662 103.784C125.662 105.656 124.302 107.096 121.598 107.096C119.982 107.096 118.43 106.536 117.566 105.656L118.126 104.744C118.846 105.496 120.142 106.04 121.598 106.04C123.454 106.04 124.478 105.176 124.478 103.784C124.478 102.44 123.534 101.56 121.454 101.56H120.654V100.712L123.758 96.824H118.03V95.8H125.23V96.616L122.062 100.6ZM126.053 108.6L131.333 93.528H132.373L127.093 108.6H126.053ZM132.441 95.8H136.233V107H135.081V96.824H132.441V95.8ZM138.222 95.8H142.014V107H140.862V96.824H138.222V95.8ZM143.459 108.6L148.739 93.528H149.779L144.499 108.6H143.459ZM151.539 105.976H157.699V107H149.843V106.184L154.499 101.624C155.763 100.376 156.003 99.624 156.003 98.856C156.003 97.56 155.091 96.76 153.379 96.76C152.067 96.76 151.059 97.16 150.323 98.008L149.507 97.304C150.371 96.28 151.763 95.704 153.475 95.704C155.747 95.704 157.187 96.856 157.187 98.728C157.187 99.8 156.851 100.76 155.347 102.232L151.539 105.976ZM163.546 107.096C160.954 107.096 159.082 104.968 159.082 101.4C159.082 97.832 160.954 95.704 163.546 95.704C166.138 95.704 168.026 97.832 168.026 101.4C168.026 104.968 166.138 107.096 163.546 107.096ZM163.546 106.04C165.498 106.04 166.842 104.392 166.842 101.4C166.842 98.408 165.498 96.76 163.546 96.76C161.594 96.76 160.25 98.408 160.25 101.4C160.25 104.392 161.594 106.04 163.546 106.04ZM171.133 105.976H177.293V107H169.437V106.184L174.093 101.624C175.357 100.376 175.597 99.624 175.597 98.856C175.597 97.56 174.685 96.76 172.973 96.76C171.661 96.76 170.653 97.16 169.917 98.008L169.101 97.304C169.965 96.28 171.357 95.704 173.069 95.704C175.341 95.704 176.781 96.856 176.781 98.728C176.781 99.8 176.445 100.76 174.941 102.232L171.133 105.976ZM187.883 103.032V104.056H185.643V107H184.491V104.056H178.171V103.224L184.107 95.8H185.387L179.659 103.032H184.523V100.44H185.643V103.032H187.883Z" fill="#0F172A"/>
<rect x="303" y="126" width="89" height="36" rx="8" fill="#213BAA"/>
<path d="M346.852 150.112C346.105 150.112 345.415 149.991 344.78 149.748C344.155 149.496 343.609 149.146 343.142 148.698C342.685 148.241 342.325 147.709 342.064 147.102C341.803 146.495 341.672 145.828 341.672 145.1C341.672 144.372 341.803 143.705 342.064 143.098C342.325 142.491 342.689 141.964 343.156 141.516C343.623 141.059 344.169 140.709 344.794 140.466C345.429 140.214 346.119 140.088 346.866 140.088C347.622 140.088 348.317 140.219 348.952 140.48C349.596 140.732 350.142 141.11 350.59 141.614L349.68 142.496C349.307 142.104 348.887 141.815 348.42 141.628C347.953 141.432 347.454 141.334 346.922 141.334C346.371 141.334 345.858 141.427 345.382 141.614C344.915 141.801 344.509 142.062 344.164 142.398C343.819 142.734 343.548 143.135 343.352 143.602C343.165 144.059 343.072 144.559 343.072 145.1C343.072 145.641 343.165 146.145 343.352 146.612C343.548 147.069 343.819 147.466 344.164 147.802C344.509 148.138 344.915 148.399 345.382 148.586C345.858 148.773 346.371 148.866 346.922 148.866C347.454 148.866 347.953 148.773 348.42 148.586C348.887 148.39 349.307 148.091 349.68 147.69L350.59 148.572C350.142 149.076 349.596 149.459 348.952 149.72C348.317 149.981 347.617 150.112 346.852 150.112ZM355.255 150.084C354.508 150.084 353.845 149.921 353.267 149.594C352.688 149.267 352.231 148.819 351.895 148.25C351.559 147.671 351.391 147.018 351.391 146.29C351.391 145.553 351.559 144.899 351.895 144.33C352.231 143.761 352.688 143.317 353.267 143C353.845 142.673 354.508 142.51 355.255 142.51C355.992 142.51 356.65 142.673 357.229 143C357.817 143.317 358.274 143.761 358.601 144.33C358.937 144.89 359.105 145.543 359.105 146.29C359.105 147.027 358.937 147.681 358.601 148.25C358.274 148.819 357.817 149.267 357.229 149.594C356.65 149.921 355.992 150.084 355.255 150.084ZM355.255 148.908C355.731 148.908 356.155 148.801 356.529 148.586C356.911 148.371 357.21 148.068 357.425 147.676C357.639 147.275 357.747 146.813 357.747 146.29C357.747 145.758 357.639 145.301 357.425 144.918C357.21 144.526 356.911 144.223 356.529 144.008C356.155 143.793 355.731 143.686 355.255 143.686C354.779 143.686 354.354 143.793 353.981 144.008C353.607 144.223 353.309 144.526 353.085 144.918C352.861 145.301 352.749 145.758 352.749 146.29C352.749 146.813 352.861 147.275 353.085 147.676C353.309 148.068 353.607 148.371 353.981 148.586C354.354 148.801 354.779 148.908 355.255 148.908ZM364.897 150.084C364.281 150.084 363.717 149.944 363.203 149.664C362.699 149.375 362.293 148.95 361.985 148.39C361.687 147.83 361.537 147.13 361.537 146.29C361.537 145.45 361.682 144.75 361.971 144.19C362.27 143.63 362.671 143.21 363.175 142.93C363.689 142.65 364.263 142.51 364.897 142.51C365.625 142.51 366.269 142.669 366.829 142.986C367.389 143.303 367.833 143.747 368.159 144.316C368.486 144.876 368.649 145.534 368.649 146.29C368.649 147.046 368.486 147.709 368.159 148.278C367.833 148.847 367.389 149.291 366.829 149.608C366.269 149.925 365.625 150.084 364.897 150.084ZM360.963 152.716V142.58H362.251V144.582L362.167 146.304L362.307 148.026V152.716H360.963ZM364.785 148.908C365.261 148.908 365.686 148.801 366.059 148.586C366.442 148.371 366.741 148.068 366.955 147.676C367.179 147.275 367.291 146.813 367.291 146.29C367.291 145.758 367.179 145.301 366.955 144.918C366.741 144.526 366.442 144.223 366.059 144.008C365.686 143.793 365.261 143.686 364.785 143.686C364.319 143.686 363.894 143.793 363.511 144.008C363.138 144.223 362.839 144.526 362.615 144.918C362.401 145.301 362.293 145.758 362.293 146.29C362.293 146.813 362.401 147.275 362.615 147.676C362.839 148.068 363.138 148.371 363.511 148.586C363.894 148.801 364.319 148.908 364.785 148.908ZM370.623 152.8C370.269 152.8 369.923 152.739 369.587 152.618C369.251 152.506 368.962 152.338 368.719 152.114L369.293 151.106C369.48 151.283 369.685 151.419 369.909 151.512C370.133 151.605 370.371 151.652 370.623 151.652C370.95 151.652 371.221 151.568 371.435 151.4C371.65 151.232 371.851 150.933 372.037 150.504L372.499 149.482L372.639 149.314L375.551 142.58H376.867L373.269 150.742C373.055 151.265 372.812 151.675 372.541 151.974C372.28 152.273 371.991 152.483 371.673 152.604C371.356 152.735 371.006 152.8 370.623 152.8ZM372.387 150.238L368.999 142.58H370.399L373.283 149.188L372.387 150.238Z" fill="white"/>
<path d="M332.25 135H320.25C320.051 135 319.86 135.079 319.72 135.22C319.579 135.36 319.5 135.551 319.5 135.75V139.5H315.75C315.551 139.5 315.36 139.579 315.22 139.72C315.079 139.86 315 140.051 315 140.25V152.25C315 152.449 315.079 152.64 315.22 152.78C315.36 152.921 315.551 153 315.75 153H327.75C327.949 153 328.14 152.921 328.28 152.78C328.421 152.64 328.5 152.449 328.5 152.25V148.5H332.25C332.449 148.5 332.64 148.421 332.78 148.28C332.921 148.14 333 147.949 333 147.75V135.75C333 135.551 332.921 135.36 332.78 135.22C332.64 135.079 332.449 135 332.25 135ZM327 151.5H316.5V141H327V151.5ZM331.5 147H328.5V140.25C328.5 140.051 328.421 139.86 328.28 139.72C328.14 139.579 327.949 139.5 327.75 139.5H321V136.5H331.5V147Z" fill="white"/>
<rect x="162.5" y="126.5" width="129" height="35" rx="7.5" stroke="#213BAA"/>
<path d="M201.47 150V140.2H205.292C206.151 140.2 206.883 140.335 207.49 140.606C208.097 140.877 208.563 141.269 208.89 141.782C209.217 142.295 209.38 142.907 209.38 143.616C209.38 144.325 209.217 144.937 208.89 145.45C208.563 145.954 208.097 146.341 207.49 146.612C206.883 146.883 206.151 147.018 205.292 147.018H202.24L202.87 146.374V150H201.47ZM208.022 150L205.53 146.444H207.028L209.548 150H208.022ZM202.87 146.514L202.24 145.828H205.25C206.146 145.828 206.823 145.637 207.28 145.254C207.747 144.862 207.98 144.316 207.98 143.616C207.98 142.916 207.747 142.375 207.28 141.992C206.823 141.609 206.146 141.418 205.25 141.418H202.24L202.87 140.718V146.514ZM214.75 150.084C213.957 150.084 213.257 149.921 212.65 149.594C212.053 149.267 211.586 148.819 211.25 148.25C210.923 147.681 210.76 147.027 210.76 146.29C210.76 145.553 210.919 144.899 211.236 144.33C211.563 143.761 212.006 143.317 212.566 143C213.135 142.673 213.775 142.51 214.484 142.51C215.203 142.51 215.837 142.669 216.388 142.986C216.939 143.303 217.368 143.751 217.676 144.33C217.993 144.899 218.152 145.567 218.152 146.332C218.152 146.388 218.147 146.453 218.138 146.528C218.138 146.603 218.133 146.673 218.124 146.738H211.81V145.772H217.424L216.878 146.108C216.887 145.632 216.789 145.207 216.584 144.834C216.379 144.461 216.094 144.171 215.73 143.966C215.375 143.751 214.96 143.644 214.484 143.644C214.017 143.644 213.602 143.751 213.238 143.966C212.874 144.171 212.589 144.465 212.384 144.848C212.179 145.221 212.076 145.651 212.076 146.136V146.36C212.076 146.855 212.188 147.298 212.412 147.69C212.645 148.073 212.967 148.371 213.378 148.586C213.789 148.801 214.26 148.908 214.792 148.908C215.231 148.908 215.627 148.833 215.982 148.684C216.346 148.535 216.663 148.311 216.934 148.012L217.676 148.88C217.34 149.272 216.92 149.571 216.416 149.776C215.921 149.981 215.366 150.084 214.75 150.084ZM222.146 150.084C221.53 150.084 220.942 150 220.382 149.832C219.831 149.664 219.397 149.459 219.08 149.216L219.64 148.152C219.957 148.367 220.349 148.549 220.816 148.698C221.283 148.847 221.759 148.922 222.244 148.922C222.869 148.922 223.317 148.833 223.588 148.656C223.868 148.479 224.008 148.231 224.008 147.914C224.008 147.681 223.924 147.499 223.756 147.368C223.588 147.237 223.364 147.139 223.084 147.074C222.813 147.009 222.51 146.953 222.174 146.906C221.838 146.85 221.502 146.785 221.166 146.71C220.83 146.626 220.522 146.514 220.242 146.374C219.962 146.225 219.738 146.024 219.57 145.772C219.402 145.511 219.318 145.165 219.318 144.736C219.318 144.288 219.444 143.896 219.696 143.56C219.948 143.224 220.303 142.967 220.76 142.79C221.227 142.603 221.777 142.51 222.412 142.51C222.897 142.51 223.387 142.571 223.882 142.692C224.386 142.804 224.797 142.967 225.114 143.182L224.54 144.246C224.204 144.022 223.854 143.868 223.49 143.784C223.126 143.7 222.762 143.658 222.398 143.658C221.81 143.658 221.371 143.756 221.082 143.952C220.793 144.139 220.648 144.381 220.648 144.68C220.648 144.932 220.732 145.128 220.9 145.268C221.077 145.399 221.301 145.501 221.572 145.576C221.852 145.651 222.16 145.716 222.496 145.772C222.832 145.819 223.168 145.884 223.504 145.968C223.84 146.043 224.143 146.15 224.414 146.29C224.694 146.43 224.918 146.626 225.086 146.878C225.263 147.13 225.352 147.466 225.352 147.886C225.352 148.334 225.221 148.721 224.96 149.048C224.699 149.375 224.33 149.631 223.854 149.818C223.378 149.995 222.809 150.084 222.146 150.084ZM230.966 150.084C230.35 150.084 229.785 149.944 229.272 149.664C228.768 149.375 228.362 148.95 228.054 148.39C227.755 147.83 227.606 147.13 227.606 146.29C227.606 145.45 227.75 144.75 228.04 144.19C228.338 143.63 228.74 143.21 229.244 142.93C229.757 142.65 230.331 142.51 230.966 142.51C231.694 142.51 232.338 142.669 232.898 142.986C233.458 143.303 233.901 143.747 234.228 144.316C234.554 144.876 234.718 145.534 234.718 146.29C234.718 147.046 234.554 147.709 234.228 148.278C233.901 148.847 233.458 149.291 232.898 149.608C232.338 149.925 231.694 150.084 230.966 150.084ZM227.032 152.716V142.58H228.32V144.582L228.236 146.304L228.376 148.026V152.716H227.032ZM230.854 148.908C231.33 148.908 231.754 148.801 232.128 148.586C232.51 148.371 232.809 148.068 233.024 147.676C233.248 147.275 233.36 146.813 233.36 146.29C233.36 145.758 233.248 145.301 233.024 144.918C232.809 144.526 232.51 144.223 232.128 144.008C231.754 143.793 231.33 143.686 230.854 143.686C230.387 143.686 229.962 143.793 229.58 144.008C229.206 144.223 228.908 144.526 228.684 144.918C228.469 145.301 228.362 145.758 228.362 146.29C228.362 146.813 228.469 147.275 228.684 147.676C228.908 148.068 229.206 148.371 229.58 148.586C229.962 148.801 230.387 148.908 230.854 148.908ZM239.753 150.084C239.006 150.084 238.343 149.921 237.765 149.594C237.186 149.267 236.729 148.819 236.393 148.25C236.057 147.671 235.889 147.018 235.889 146.29C235.889 145.553 236.057 144.899 236.393 144.33C236.729 143.761 237.186 143.317 237.765 143C238.343 142.673 239.006 142.51 239.753 142.51C240.49 142.51 241.148 142.673 241.727 143C242.315 143.317 242.772 143.761 243.099 144.33C243.435 144.89 243.603 145.543 243.603 146.29C243.603 147.027 243.435 147.681 243.099 148.25C242.772 148.819 242.315 149.267 241.727 149.594C241.148 149.921 240.49 150.084 239.753 150.084ZM239.753 148.908C240.229 148.908 240.653 148.801 241.027 148.586C241.409 148.371 241.708 148.068 241.923 147.676C242.137 147.275 242.245 146.813 242.245 146.29C242.245 145.758 242.137 145.301 241.923 144.918C241.708 144.526 241.409 144.223 241.027 144.008C240.653 143.793 240.229 143.686 239.753 143.686C239.277 143.686 238.852 143.793 238.479 144.008C238.105 144.223 237.807 144.526 237.583 144.918C237.359 145.301 237.247 145.758 237.247 146.29C237.247 146.813 237.359 147.275 237.583 147.676C237.807 148.068 238.105 148.371 238.479 148.586C238.852 148.801 239.277 148.908 239.753 148.908ZM249.424 142.51C250.03 142.51 250.562 142.627 251.02 142.86C251.486 143.093 251.85 143.448 252.112 143.924C252.373 144.4 252.504 145.002 252.504 145.73V150H251.16V145.884C251.16 145.165 250.982 144.624 250.628 144.26C250.282 143.896 249.792 143.714 249.158 143.714C248.682 143.714 248.266 143.807 247.912 143.994C247.557 144.181 247.282 144.456 247.086 144.82C246.899 145.184 246.806 145.637 246.806 146.178V150H245.462V142.58H246.75V144.582L246.54 144.05C246.782 143.565 247.156 143.187 247.66 142.916C248.164 142.645 248.752 142.51 249.424 142.51ZM257.119 150.084C256.503 150.084 255.915 150 255.355 149.832C254.804 149.664 254.37 149.459 254.053 149.216L254.613 148.152C254.93 148.367 255.322 148.549 255.789 148.698C256.255 148.847 256.731 148.922 257.217 148.922C257.842 148.922 258.29 148.833 258.561 148.656C258.841 148.479 258.981 148.231 258.981 147.914C258.981 147.681 258.897 147.499 258.729 147.368C258.561 147.237 258.337 147.139 258.057 147.074C257.786 147.009 257.483 146.953 257.147 146.906C256.811 146.85 256.475 146.785 256.139 146.71C255.803 146.626 255.495 146.514 255.215 146.374C254.935 146.225 254.711 146.024 254.543 145.772C254.375 145.511 254.291 145.165 254.291 144.736C254.291 144.288 254.417 143.896 254.669 143.56C254.921 143.224 255.275 142.967 255.733 142.79C256.199 142.603 256.75 142.51 257.385 142.51C257.87 142.51 258.36 142.571 258.855 142.692C259.359 142.804 259.769 142.967 260.087 143.182L259.513 144.246C259.177 144.022 258.827 143.868 258.463 143.784C258.099 143.7 257.735 143.658 257.371 143.658C256.783 143.658 256.344 143.756 256.055 143.952C255.765 144.139 255.621 144.381 255.621 144.68C255.621 144.932 255.705 145.128 255.873 145.268C256.05 145.399 256.274 145.501 256.545 145.576C256.825 145.651 257.133 145.716 257.469 145.772C257.805 145.819 258.141 145.884 258.477 145.968C258.813 146.043 259.116 146.15 259.387 146.29C259.667 146.43 259.891 146.626 260.059 146.878C260.236 147.13 260.325 147.466 260.325 147.886C260.325 148.334 260.194 148.721 259.933 149.048C259.671 149.375 259.303 149.631 258.827 149.818C258.351 149.995 257.781 150.084 257.119 150.084ZM265.308 150.084C264.515 150.084 263.815 149.921 263.208 149.594C262.611 149.267 262.144 148.819 261.808 148.25C261.482 147.681 261.318 147.027 261.318 146.29C261.318 145.553 261.477 144.899 261.794 144.33C262.121 143.761 262.564 143.317 263.124 143C263.694 142.673 264.333 142.51 265.042 142.51C265.761 142.51 266.396 142.669 266.946 142.986C267.497 143.303 267.926 143.751 268.234 144.33C268.552 144.899 268.71 145.567 268.71 146.332C268.71 146.388 268.706 146.453 268.696 146.528C268.696 146.603 268.692 146.673 268.682 146.738H262.368V145.772H267.982L267.436 146.108C267.446 145.632 267.348 145.207 267.142 144.834C266.937 144.461 266.652 144.171 266.288 143.966C265.934 143.751 265.518 143.644 265.042 143.644C264.576 143.644 264.16 143.751 263.796 143.966C263.432 144.171 263.148 144.465 262.942 144.848C262.737 145.221 262.634 145.651 262.634 146.136V146.36C262.634 146.855 262.746 147.298 262.97 147.69C263.204 148.073 263.526 148.371 263.936 148.586C264.347 148.801 264.818 148.908 265.35 148.908C265.789 148.908 266.186 148.833 266.54 148.684C266.904 148.535 267.222 148.311 267.492 148.012L268.234 148.88C267.898 149.272 267.478 149.571 266.974 149.776C266.48 149.981 265.924 150.084 265.308 150.084ZM272.705 150.084C272.089 150.084 271.501 150 270.941 149.832C270.39 149.664 269.956 149.459 269.639 149.216L270.199 148.152C270.516 148.367 270.908 148.549 271.375 148.698C271.841 148.847 272.317 148.922 272.803 148.922C273.428 148.922 273.876 148.833 274.147 148.656C274.427 148.479 274.567 148.231 274.567 147.914C274.567 147.681 274.483 147.499 274.315 147.368C274.147 147.237 273.923 147.139 273.643 147.074C273.372 147.009 273.069 146.953 272.733 146.906C272.397 146.85 272.061 146.785 271.725 146.71C271.389 146.626 271.081 146.514 270.801 146.374C270.521 146.225 270.297 146.024 270.129 145.772C269.961 145.511 269.877 145.165 269.877 144.736C269.877 144.288 270.003 143.896 270.255 143.56C270.507 143.224 270.861 142.967 271.319 142.79C271.785 142.603 272.336 142.51 272.971 142.51C273.456 142.51 273.946 142.571 274.441 142.692C274.945 142.804 275.355 142.967 275.673 143.182L275.099 144.246C274.763 144.022 274.413 143.868 274.049 143.784C273.685 143.7 273.321 143.658 272.957 143.658C272.369 143.658 271.93 143.756 271.641 143.952C271.351 144.139 271.207 144.381 271.207 144.68C271.207 144.932 271.291 145.128 271.459 145.268C271.636 145.399 271.86 145.501 272.131 145.576C272.411 145.651 272.719 145.716 273.055 145.772C273.391 145.819 273.727 145.884 274.063 145.968C274.399 146.043 274.702 146.15 274.973 146.29C275.253 146.43 275.477 146.626 275.645 146.878C275.822 147.13 275.911 147.466 275.911 147.886C275.911 148.334 275.78 148.721 275.519 149.048C275.257 149.375 274.889 149.631 274.413 149.818C273.937 149.995 273.367 150.084 272.705 150.084Z" fill="#213BAA"/>
<path d="M184 137.688C182.554 137.688 181.14 138.116 179.937 138.92C178.735 139.723 177.798 140.865 177.244 142.202C176.691 143.538 176.546 145.008 176.828 146.427C177.11 147.845 177.807 149.148 178.829 150.171C179.852 151.193 181.155 151.89 182.573 152.172C183.992 152.454 185.462 152.309 186.798 151.756C188.135 151.202 189.277 150.265 190.08 149.063C190.884 147.86 191.313 146.446 191.313 145C191.31 143.061 190.539 141.202 189.168 139.832C187.798 138.461 185.939 137.69 184 137.688ZM184 151.188C182.776 151.188 181.58 150.825 180.562 150.145C179.545 149.465 178.752 148.498 178.283 147.368C177.815 146.237 177.693 144.993 177.931 143.793C178.17 142.593 178.759 141.49 179.625 140.625C180.49 139.759 181.593 139.17 182.793 138.931C183.993 138.693 185.237 138.815 186.368 139.283C187.498 139.752 188.465 140.545 189.145 141.562C189.825 142.58 190.188 143.776 190.188 145C190.186 146.64 189.533 148.213 188.373 149.373C187.213 150.533 185.64 151.186 184 151.188ZM185.125 148.375C185.125 148.524 185.066 148.667 184.96 148.773C184.855 148.878 184.712 148.938 184.563 148.938C184.264 148.938 183.978 148.819 183.767 148.608C183.556 148.397 183.438 148.111 183.438 147.812V145C183.288 145 183.145 144.941 183.04 144.835C182.934 144.73 182.875 144.587 182.875 144.438C182.875 144.288 182.934 144.145 183.04 144.04C183.145 143.934 183.288 143.875 183.438 143.875C183.736 143.875 184.022 143.994 184.233 144.205C184.444 144.415 184.563 144.702 184.563 145V147.812C184.712 147.812 184.855 147.872 184.96 147.977C185.066 148.083 185.125 148.226 185.125 148.375ZM182.875 141.906C182.875 141.739 182.924 141.576 183.017 141.437C183.11 141.299 183.242 141.191 183.396 141.127C183.55 141.063 183.72 141.046 183.883 141.079C184.047 141.111 184.197 141.192 184.315 141.31C184.433 141.428 184.514 141.578 184.546 141.742C184.579 141.905 184.562 142.075 184.498 142.229C184.434 142.383 184.326 142.515 184.188 142.608C184.049 142.701 183.886 142.75 183.719 142.75C183.495 142.75 183.28 142.661 183.122 142.503C182.964 142.345 182.875 142.13 182.875 141.906Z" fill="#213BAA"/>
<path d="M375.5 25C375.5 25.2967 375.412 25.5867 375.247 25.8334C375.082 26.08 374.848 26.2723 374.574 26.3858C374.3 26.4993 373.998 26.5291 373.707 26.4712C373.416 26.4133 373.149 26.2704 372.939 26.0607C372.73 25.8509 372.587 25.5836 372.529 25.2926C372.471 25.0017 372.501 24.7001 372.614 24.426C372.728 24.1519 372.92 23.9176 373.167 23.7528C373.413 23.588 373.703 23.5 374 23.5C374.398 23.5 374.779 23.658 375.061 23.9393C375.342 24.2206 375.5 24.6022 375.5 25ZM382.5 23.5C382.203 23.5 381.913 23.588 381.667 23.7528C381.42 23.9176 381.228 24.1519 381.114 24.426C381.001 24.7001 380.971 25.0017 381.029 25.2926C381.087 25.5836 381.23 25.8509 381.439 26.0607C381.649 26.2704 381.916 26.4133 382.207 26.4712C382.498 26.5291 382.8 26.4993 383.074 26.3858C383.348 26.2723 383.582 26.08 383.747 25.8334C383.912 25.5867 384 25.2967 384 25C384 24.6022 383.842 24.2206 383.561 23.9393C383.279 23.658 382.898 23.5 382.5 23.5ZM365.5 23.5C365.203 23.5 364.913 23.588 364.667 23.7528C364.42 23.9176 364.228 24.1519 364.114 24.426C364.001 24.7001 363.971 25.0017 364.029 25.2926C364.087 25.5836 364.23 25.8509 364.439 26.0607C364.649 26.2704 364.916 26.4133 365.207 26.4712C365.498 26.5291 365.8 26.4993 366.074 26.3858C366.348 26.2723 366.582 26.08 366.747 25.8334C366.912 25.5867 367 25.2967 367 25C367 24.6022 366.842 24.2206 366.561 23.9393C366.279 23.658 365.898 23.5 365.5 23.5Z" fill="black"/>
</svg>
